<svg width="24" height="24" viewBox="0 0 24 24" fill="none" xmlns="http://www.w3.org/2000/svg">
<path d="M8.21904 12.0764C8.35316 12.0192 8.4974 11.9894 8.64322 11.9889C8.78904 11.9884 8.93348 12.0171 9.06802 12.0733C9.20255 12.1296 9.32444 12.2122 9.42648 12.3164C9.52852 12.4206 9.60864 12.5441 9.66211 12.6798C9.71557 12.8155 9.74129 12.9605 9.73775 13.1063C9.73421 13.252 9.70148 13.3956 9.6415 13.5285C9.58151 13.6615 9.49549 13.781 9.38852 13.8801C9.28154 13.9792 9.15578 14.0558 9.01868 14.1055C8.28945 14.3928 7.66358 14.893 7.2225 15.5409C6.78142 16.1888 6.54555 16.9544 6.54559 17.7382V19.6364C6.54559 19.9257 6.66052 20.2032 6.86511 20.4078C7.06969 20.6124 7.34717 20.7273 7.6365 20.7273H16.3638C16.6531 20.7273 16.9306 20.6124 17.1352 20.4078C17.3397 20.2032 17.4547 19.9257 17.4547 19.6364V17.8397C17.4548 17.0307 17.2091 16.2409 16.7501 15.5748C16.2911 14.9087 15.6405 14.3978 14.8845 14.1099C14.7465 14.062 14.6196 13.9869 14.5112 13.889C14.4028 13.7912 14.3151 13.6726 14.2534 13.5402C14.1917 13.4079 14.1572 13.2645 14.1519 13.1186C14.1467 12.9726 14.1708 12.8271 14.2228 12.6907C14.2748 12.5542 14.3537 12.4296 14.4547 12.3242C14.5558 12.2188 14.677 12.1348 14.8111 12.0771C14.9453 12.0194 15.0896 11.9892 15.2357 11.9883C15.3817 11.9875 15.5264 12.0159 15.6612 12.072C16.8302 12.5173 17.8364 13.3073 18.5463 14.3373C19.2562 15.3673 19.6364 16.5887 19.6365 17.8397V19.6364C19.6365 20.5044 19.2917 21.3368 18.6779 21.9506C18.0642 22.5643 17.2318 22.9091 16.3638 22.9091H7.6365C6.76852 22.9091 5.93608 22.5643 5.32233 21.9506C4.70857 21.3368 4.36377 20.5044 4.36377 19.6364V17.7382C4.36392 16.5166 4.73171 15.3232 5.41929 14.3135C6.10687 13.3037 7.08243 12.5242 8.21904 12.0764ZM12.0001 1.09094C13.1574 1.09094 14.2674 1.55068 15.0857 2.36902C15.904 3.18736 16.3638 4.29727 16.3638 5.45458V7.6364C16.3638 8.7937 15.904 9.90361 15.0857 10.722C14.2674 11.5403 13.1574 12 12.0001 12C10.8428 12 9.73292 11.5403 8.91458 10.722C8.09624 9.90361 7.6365 8.7937 7.6365 7.6364V5.45458C7.6365 4.29727 8.09624 3.18736 8.91458 2.36902C9.73292 1.55068 10.8428 1.09094 12.0001 1.09094ZM12.0001 3.27276C11.4215 3.27276 10.8665 3.50263 10.4574 3.9118C10.0482 4.32097 9.81832 4.87592 9.81832 5.45458V7.6364C9.81832 8.21505 10.0482 8.77 10.4574 9.17917C10.8665 9.58835 11.4215 9.81821 12.0001 9.81821C12.5788 9.81821 13.1337 9.58835 13.5429 9.17917C13.9521 8.77 14.182 8.21505 14.182 7.6364V5.45458C14.182 4.87592 13.9521 4.32097 13.5429 3.9118C13.1337 3.50263 12.5788 3.27276 12.0001 3.27276Z" fill="#909090"/>
</svg>
