<svg width="38" height="38" viewBox="0 0 38 38" fill="none" xmlns="http://www.w3.org/2000/svg">
<path d="M14.3427 23.8652C12.5832 23.8652 11.1523 25.2962 11.1523 27.0556C11.1523 28.8149 12.5833 30.2459 14.3427 30.2459C16.1021 30.2459 17.533 28.8149 17.533 27.0556C17.533 25.2962 16.102 23.8652 14.3427 23.8652ZM14.3427 28.7028C13.437 28.7028 12.6979 27.9637 12.6979 27.0581C12.6979 26.1524 13.437 25.4133 14.3427 25.4133C15.2484 25.4133 15.9874 26.1524 15.9874 27.0581C15.9874 27.9637 15.2484 28.7028 14.3427 28.7028Z" fill="#909090"/>
<path d="M25.2216 23.8652C23.4621 23.8652 22.0312 25.2962 22.0312 27.0556C22.0312 28.8149 23.4622 30.2459 25.2216 30.2459C26.981 30.2459 28.4119 28.8149 28.4119 27.0556C28.4119 25.2962 26.9834 23.8652 25.2216 23.8652ZM25.2216 28.7028C24.3159 28.7028 23.5769 27.9637 23.5769 27.0581C23.5769 26.1524 24.3159 25.4133 25.2216 25.4133C26.1273 25.4133 26.8663 26.1524 26.8663 27.0581C26.8663 27.9637 26.1297 28.7028 25.2216 28.7028Z" fill="#909090"/>
<path d="M28.2726 22.2622L30.9992 10.6262H10.7262L10.1695 7H4.87891V8.54571H8.84358L11.2612 22.2625L28.2726 22.2622ZM29.1167 12.1719L27.0083 20.7165H12.5873L10.9643 12.1719H29.1167Z" fill="#909090"/>
<rect x="23" y="7" width="10" height="10" rx="5" fill="#F06200"/>
<rect x="23" y="7" width="10" height="10" rx="5" stroke="#121212" stroke-width="2"/>
</svg>
