<svg width="19" height="22" viewBox="0 0 19 22" fill="none" xmlns="http://www.w3.org/2000/svg">
<path d="M8.50529 20.8871C9.11765 21.1481 9.72764 20.9304 10.0829 20.5406C10.4291 20.1609 10.5799 19.5785 10.3544 19.0197C9.83973 17.7442 9.42454 16.255 9.29325 14.9233C9.15606 13.5318 9.3539 12.5746 9.75142 12.0981C10.1019 11.6779 10.7057 11.513 11.2615 11.6678C11.7692 11.8093 12.1947 12.2062 12.2407 12.9469C12.2672 13.3744 12.4724 13.7746 12.8027 14.0388C13.1505 14.317 13.6731 14.4597 14.1985 14.2366C17.4008 12.8766 18.566 9.07539 17.7411 6.01306C17.3171 4.43897 16.3573 2.9731 14.805 2.03362C13.2496 1.09223 11.2003 0.739717 8.70471 1.20303C8.02479 1.32926 7.54654 1.9306 7.54762 2.60322C7.54769 2.64423 7.54775 2.68474 7.54782 2.72477C7.54819 2.94778 7.54854 3.1558 7.54841 3.34987C7.31325 2.54699 6.37604 1.97137 5.48231 2.52238C2.09467 4.61097 0.595213 8.27918 1.09362 11.8878C1.59294 15.503 4.07818 18.9997 8.50529 20.8871Z" stroke="#909090" stroke-width="2"/>
</svg>
