<svg width="24" height="24" viewBox="0 0 24 24" fill="none" xmlns="http://www.w3.org/2000/svg">
<path d="M11.3891 13.9636H18.8726C19.1329 13.9636 19.3827 13.8601 19.5668 13.676C19.7509 13.4919 19.8544 13.2422 19.8544 12.9818V5.12722C19.8544 4.86682 19.7509 4.61709 19.5668 4.43297C19.3827 4.24884 19.1329 4.1454 18.8726 4.1454H5.1271C4.8667 4.1454 4.61697 4.24884 4.43284 4.43297C4.24872 4.61709 4.14528 4.86682 4.14528 5.12722V12.9818C4.14528 13.2422 4.24872 13.4919 4.43284 13.676C4.61697 13.8601 4.8667 13.9636 5.1271 13.9636C5.38749 13.9636 5.63722 14.067 5.82135 14.2511C6.00547 14.4353 6.10891 14.685 6.10891 14.9454V17.9036L11.3891 13.9636ZM5.1271 2.18176H18.8726C19.6537 2.18176 20.4029 2.49209 20.9553 3.04447C21.5077 3.59685 21.818 4.34603 21.818 5.12722V12.9818C21.818 13.7629 21.5077 14.5121 20.9553 15.0645C20.4029 15.6169 19.6537 15.9272 18.8726 15.9272H12.0411L5.71422 20.6478C5.56821 20.7567 5.39478 20.8229 5.21331 20.8389C5.03185 20.8549 4.84951 20.8201 4.6867 20.7384C4.52388 20.6567 4.38701 20.5313 4.29139 20.3762C4.19578 20.2212 4.14519 20.0425 4.14528 19.8604V15.9272C3.62449 15.9272 3.12503 15.7203 2.75678 15.3521C2.38852 14.9838 2.18164 14.4844 2.18164 13.9636V5.12722C2.18164 4.34603 2.49196 3.59685 3.04434 3.04447C3.59672 2.49209 4.34591 2.18176 5.1271 2.18176Z" fill="#909090"/>
</svg>
