<svg width="140" height="60" viewBox="0 0 140 60" fill="none" xmlns="http://www.w3.org/2000/svg">
<rect width="140" height="60" rx="5" fill="#F1EEEE"/>
<g opacity="0.4" clip-path="url(#clip0_5_154)">
<path fill-rule="evenodd" clip-rule="evenodd" d="M62.6921 21.5887V37.1534H65.7607V31.4833H69.5408C72.5868 31.4833 74.8548 29.3713 74.8548 26.5029C74.8548 23.6566 72.6758 21.5887 69.652 21.5887H62.6921ZM69.3186 28.8599H65.7607V24.3238H69.3186C70.786 24.3238 71.8088 25.2577 71.8088 26.5919C71.8088 27.9259 70.786 28.8599 69.3186 28.8599ZM79.1239 20.6996L76.3002 21.5887V37.1534H79.1239V20.6996ZM85.9942 37.3093C87.3731 37.3093 88.6184 36.7979 89.5522 35.9304V37.1534H92.3759V26.0583H89.5522V27.2809C88.6626 26.3917 87.4395 25.8803 86.1058 25.8803C83.2153 25.8803 80.5912 28.2816 80.5912 31.5946C80.5912 34.9075 83.1706 37.3093 85.9942 37.3093ZM86.4837 34.7742C84.7718 34.7742 83.3928 33.4623 83.3928 31.5946C83.3928 29.7268 84.7718 28.4149 86.4837 28.4149C88.218 28.4149 89.5743 29.7268 89.5743 31.5946C89.5743 33.4623 88.218 34.7742 86.4837 34.7742ZM105.539 26.0583H102.582L99.4243 32.5952L96.2004 26.0583H93.0431L97.8015 35.7525L94.6218 42.0676H97.6903L105.539 26.0583ZM50.9002 32.54L49.9936 31.0927H47.3467L48.2547 29.6429H49.0909L48.0802 28.029L45.2606 32.54H37.7381L39.5492 29.6429H38.2194L39.1235 28.1931H44.9382L44.0336 29.6429H41.2603L40.3537 31.0927H44.4562L48.0802 25.2929L52.6093 32.54H50.9002ZM40.9353 25.2929H46.8999L45.9933 26.7433H40.0293L40.9353 25.2929ZM45.0692 19C39.3393 19 34.6938 23.6457 34.6938 29.3759C34.6938 35.1074 39.3393 39.7511 45.0692 39.7511C50.7989 39.7511 55.4451 35.1074 55.4451 29.3759C55.4451 23.6457 50.7989 19 45.0692 19Z" fill="black"/>
</g>
<defs>
<clipPath id="clip0_5_154">
<rect width="70.8455" height="23.1429" fill="white" transform="translate(34.6938 19)"/>
</clipPath>
</defs>
</svg>
