<svg width="32" height="42" viewBox="0 0 32 42" fill="none" xmlns="http://www.w3.org/2000/svg">
<path opacity="0.5" d="M31 0H1C0.447715 0 0 0.447716 0 1V40.0233C0 40.843 0.932079 41.3145 1.59245 40.8289L15.0796 30.9104C15.426 30.6556 15.8966 30.6509 16.2481 30.8986L30.4239 40.8892C31.0864 41.3561 32 40.8823 32 40.0718V1C32 0.447715 31.5523 0 31 0Z" fill="#F6F6F6"/>
<path d="M10.9191 13.4965L15.8875 18.741L20.8559 13.4965C21.2952 13.0329 21.542 12.404 21.542 11.7483C21.542 11.0925 21.2952 10.4636 20.8559 9.99997C20.6384 9.77039 20.3802 9.58827 20.096 9.46401C19.8119 9.33976 19.5073 9.27581 19.1997 9.27581C18.5785 9.27581 17.9827 9.5363 17.5434 9.99997L15.8875 11.7478L14.2316 10.0008C13.7913 9.54335 13.1975 9.28811 12.5796 9.29069C11.9617 9.29327 11.3699 9.55345 10.9329 10.0146C10.496 10.4757 10.2494 11.1004 10.2468 11.7526C10.2442 12.4047 10.4858 13.0316 10.9191 13.4965ZM15.3356 8.8339L15.8875 9.41653L16.4395 8.8339C16.8014 8.44854 17.2318 8.14242 17.7061 7.93312C18.1804 7.72383 18.6892 7.61548 19.2032 7.61429C19.7173 7.6131 20.2265 7.7191 20.7016 7.9262C21.1768 8.1333 21.6085 8.43743 21.972 8.82111C22.3355 9.2048 22.6236 9.6605 22.8198 10.162C23.016 10.6636 23.1164 11.2011 23.1153 11.7437C23.1142 12.2863 23.0115 12.8233 22.8132 13.324C22.615 13.8246 22.3249 14.279 21.9599 14.661L16.4403 20.488C16.3678 20.5647 16.2817 20.6254 16.1869 20.6669C16.0921 20.7084 15.9905 20.7297 15.8879 20.7297C15.7853 20.7297 15.6837 20.7084 15.589 20.6669C15.4942 20.6254 15.4081 20.5647 15.3356 20.488L9.81519 14.6618C9.44514 14.281 9.15041 13.8265 8.94808 13.3245C8.74576 12.8226 8.63987 12.2832 8.63655 11.7377C8.63324 11.1923 8.73258 10.6515 8.92879 10.1469C9.12501 9.64223 9.4142 9.18373 9.7796 8.79798C10.145 8.41224 10.5793 8.10691 11.0574 7.89972C11.5354 7.69253 12.0477 7.58761 12.5645 7.59102C13.0812 7.59444 13.5922 7.70614 14.0678 7.91963C14.5433 8.13313 14.974 8.44417 15.3348 8.83473L15.3356 8.8339Z" fill="#F6F6F6"/>
</svg>
