<svg width="27" height="27" viewBox="0 0 27 27" fill="none" xmlns="http://www.w3.org/2000/svg">
<rect y="0.330078" width="26.2171" height="26.2171" rx="13.1086" fill="#C5FF00"/>
<path d="M12.5171 20.9588C12.8106 21.0811 13.0921 20.7728 12.9708 20.4789C12.0441 18.2344 11.4454 15.1772 12.5908 13.8351C13.6745 12.5654 16.1082 13.0256 16.2355 15.0301C16.2517 15.2839 16.4878 15.4885 16.7227 15.391C21.216 13.5259 20.4131 4.63954 12.5084 6.07387C12.3421 6.10404 12.2172 6.25264 12.2175 6.42161C12.2211 8.63872 12.2484 9.60281 11.4173 9.60281C10.6729 9.60281 10.5679 8.53936 10.5531 7.36748C10.5497 7.10122 10.2696 6.93042 10.0415 7.06785C4.85283 10.1944 5.44496 18.0121 12.5171 20.9588Z" fill="#232323"/>
</svg>
