<svg width="24" height="24" viewBox="0 0 24 24" fill="none" xmlns="http://www.w3.org/2000/svg">
    <path d="M6.54568 1.09094H17.4548C18.3227 1.09094 19.1552 1.43575 19.7689 2.0495C20.3827 2.66326 20.7275 3.49569 20.7275 4.36367V19.6364C20.7275 20.5044 20.3827 21.3368 19.7689 21.9506C19.1552 22.5643 18.3227 22.9091 17.4548 22.9091H6.54568C5.6777 22.9091 4.84526 22.5643 4.23151 21.9506C3.61775 21.3368 3.27295 20.5044 3.27295 19.6364L3.27295 4.36367C3.27295 3.49569 3.61775 2.66326 4.23151 2.0495C4.84526 1.43575 5.6777 1.09094 6.54568 1.09094ZM6.54568 3.27276C6.25635 3.27276 5.97887 3.3877 5.77429 3.59228C5.5697 3.79687 5.45477 4.07434 5.45477 4.36367V19.6364C5.45477 19.9257 5.5697 20.2032 5.77429 20.4078C5.97887 20.6124 6.25635 20.7273 6.54568 20.7273H17.4548C17.7441 20.7273 18.0216 20.6124 18.2262 20.4078C18.4307 20.2032 18.5457 19.9257 18.5457 19.6364V4.36367C18.5457 4.07434 18.4307 3.79687 18.2262 3.59228C18.0216 3.3877 17.7441 3.27276 17.4548 3.27276H6.54568ZM8.72749 4.36367H15.2729C15.5623 4.36367 15.8398 4.4786 16.0443 4.68319C16.2489 4.88777 16.3639 5.16525 16.3639 5.45458C16.3639 5.74391 16.2489 6.02138 16.0443 6.22597C15.8398 6.43055 15.5623 6.54549 15.2729 6.54549H8.72749C8.43817 6.54549 8.16069 6.43055 7.95611 6.22597C7.75152 6.02138 7.63659 5.74391 7.63659 5.45458C7.63659 5.16525 7.75152 4.88777 7.95611 4.68319C8.16069 4.4786 8.43817 4.36367 8.72749 4.36367ZM8.72749 17.4546H10.9093C11.1986 17.4546 11.4761 17.5695 11.6807 17.7741C11.8853 17.9787 12.0002 18.2562 12.0002 18.5455C12.0002 18.8348 11.8853 19.1123 11.6807 19.3169C11.4761 19.5215 11.1986 19.6364 10.9093 19.6364H8.72749C8.43817 19.6364 8.16069 19.5215 7.95611 19.3169C7.75152 19.1123 7.63659 18.8348 7.63659 18.5455C7.63659 18.2562 7.75152 17.9787 7.95611 17.7741C8.16069 17.5695 8.43817 17.4546 8.72749 17.4546ZM8.72749 13.0909H15.2729C15.5623 13.0909 15.8398 13.2059 16.0443 13.4105C16.2489 13.615 16.3639 13.8925 16.3639 14.1819C16.3639 14.4712 16.2489 14.7487 16.0443 14.9532C15.8398 15.1578 15.5623 15.2728 15.2729 15.2728H8.72749C8.43817 15.2728 8.16069 15.1578 7.95611 14.9532C7.75152 14.7487 7.63659 14.4712 7.63659 14.1819C7.63659 13.8925 7.75152 13.615 7.95611 13.4105C8.16069 13.2059 8.43817 13.0909 8.72749 13.0909ZM8.72749 8.72731H15.2729C15.5623 8.72731 15.8398 8.84224 16.0443 9.04683C16.2489 9.25141 16.3639 9.52889 16.3639 9.81822C16.3639 10.1075 16.2489 10.385 16.0443 10.5896C15.8398 10.7942 15.5623 10.9091 15.2729 10.9091H8.72749C8.43817 10.9091 8.16069 10.7942 7.95611 10.5896C7.75152 10.385 7.63659 10.1075 7.63659 9.81822C7.63659 9.52889 7.75152 9.25141 7.95611 9.04683C8.16069 8.84224 8.43817 8.72731 8.72749 8.72731Z" fill="black"/>
</svg>
