<svg width="86" height="50" viewBox="0 0 86 50" fill="none" xmlns="http://www.w3.org/2000/svg">
<path d="M-0.000241409 25L43.6415 -2.96705e-07L85.9998 -2.97049e-07L-0.000243801 50L-0.000241409 25Z" fill="#9100FF"/>
<g clip-path="url(#clip0_8116_1389)">
<path d="M12.3209 30.5291L12.161 30.6214C10.5422 31.556 9.75931 30.8 9.47854 30.3137L9.41316 30.2004C9.12854 29.7075 8.88066 28.6781 10.4995 27.7435L10.6593 27.6512C12.2715 26.7204 13.039 27.4498 13.3236 27.9427L13.389 28.056C13.6697 28.5423 13.9397 29.5945 12.3209 30.5291ZM15.1706 25.1265L16.4897 24.365L14.0085 32.4059L12.6961 33.1636L15.1706 25.1265ZM11.7612 29.7597C12.4274 29.3751 12.4664 28.935 12.3011 28.6486L12.2703 28.5953C12.0857 28.2755 11.7186 28.1321 11.0458 28.5206C10.3796 28.9052 10.327 29.2909 10.5116 29.6107L10.5347 29.6506C10.7077 29.9504 11.1017 30.1404 11.7612 29.7597ZM18.6958 29.7708L18.5293 29.8669C16.9238 30.7939 16.1237 30.0389 15.843 29.5526L15.7776 29.4393C15.493 28.9464 15.2584 27.9093 16.8639 26.9824L17.0304 26.8863C18.6359 25.9593 19.4101 26.6848 19.6947 27.1778L19.7601 27.291C20.0408 27.7774 20.308 28.84 18.6958 29.7708ZM18.1323 28.9947C18.7985 28.6101 18.8375 28.1701 18.6721 27.8836L18.6414 27.8303C18.4683 27.5306 18.0897 27.3672 17.4169 27.7556C16.7441 28.1441 16.7029 28.5498 16.876 28.8496L16.8991 28.8895C17.0722 29.1893 17.4661 29.3793 18.1323 28.9947Z" fill="#E7E7E7"/>
</g>
<path d="M49.3976 12.2938L43.7085 15.5784L40.8469 10.6221L46.536 7.33745L47.1284 8.36336L42.9448 10.7787L43.4871 11.7181L47.3509 9.48728L47.9432 10.5132L45.8781 11.7055L44.0794 12.744L44.6217 13.6833L48.8053 11.2679L49.3976 12.2938Z" fill="#E7E7E7"/>
<path d="M38.4188 17.2646L42.6024 14.8492L43.1947 15.8751L37.5056 19.1597L34.644 14.2034L36.1496 13.3341L38.4188 17.2646Z" fill="#E7E7E7"/>
<path d="M31.1984 21.602L31.2313 22.7821L29.6391 23.7013L29.429 17.2142L31.5474 15.9911L37.067 19.4129L35.4681 20.3359L34.4626 19.7174L31.1984 21.602ZM31.0689 17.6086L31.1523 20.2607L33.324 19.0069L31.0689 17.6086Z" fill="#E7E7E7"/>
<path d="M28.4913 22.028L28.5413 22.1146C28.5452 22.1212 28.549 22.1279 28.5567 22.1412L28.7875 22.5409C28.8116 22.5981 28.8423 22.6514 28.8559 22.7057C28.8598 22.7124 28.8636 22.719 28.8675 22.7257C28.8877 22.7762 28.9013 22.8305 28.9149 22.8848C28.9188 22.8915 28.9226 22.8981 28.9198 22.9086C28.9296 22.9563 28.9432 23.0106 28.9491 23.0516C28.9501 23.0688 28.9473 23.0793 28.9483 23.0965C28.9542 23.1375 28.9535 23.1823 28.9594 23.2233C28.9537 23.2443 28.9548 23.2615 28.9558 23.2787C28.9512 23.3169 28.9505 23.3617 28.942 23.3932C28.9402 23.4209 28.9346 23.4419 28.9328 23.4696C28.9244 23.5011 28.9159 23.5326 28.9075 23.5642C28.899 23.5957 28.8839 23.6311 28.8688 23.6664C28.8632 23.6875 28.8575 23.7085 28.8481 23.7228C28.6724 24.1262 28.2809 24.4944 27.6909 24.8262L25.1327 26.3031C24.5437 26.6521 24.0292 26.807 23.592 26.7574C23.5748 26.7585 23.5538 26.7528 23.5328 26.7472C23.4946 26.7426 23.4564 26.738 23.4249 26.7296C23.3933 26.7211 23.3618 26.7127 23.3303 26.7042C23.3054 26.6919 23.2844 26.6863 23.2595 26.674C23.228 26.6656 23.1888 26.6438 23.1534 26.6287C23.1391 26.6192 23.1247 26.6097 23.1104 26.6002C23.0712 26.5785 23.0319 26.5567 22.9994 26.5311C22.985 26.5216 22.9745 26.5188 22.9602 26.5093C22.9276 26.4837 22.8874 26.4448 22.851 26.4125C22.8471 26.4058 22.8366 26.403 22.8328 26.3963C22.7925 26.3574 22.7523 26.3185 22.7187 26.2757C22.7148 26.269 22.711 26.2624 22.7072 26.2557C22.6669 26.2168 22.6361 26.1635 22.5987 26.114C22.5949 26.1073 22.5949 26.1073 22.5949 26.1073L22.3449 25.6743L23.6705 24.909L23.7513 25.0488C23.7629 25.0688 23.7849 25.0916 23.7964 25.1116L23.8003 25.1183C23.8185 25.1344 23.83 25.1544 23.8482 25.1705L23.8587 25.1734C23.8703 25.1933 23.8846 25.2028 23.9028 25.219C23.9095 25.2151 23.9133 25.2218 23.9133 25.2218C23.9315 25.2379 23.9459 25.2474 23.9669 25.253C23.9707 25.2597 23.9774 25.2558 23.9813 25.2625C23.9956 25.272 24.01 25.2815 24.0271 25.2804C24.0376 25.2832 24.0481 25.2861 24.052 25.2927C24.073 25.2983 24.0835 25.3012 24.094 25.304C24.1084 25.3135 24.1256 25.3124 24.1427 25.3114C24.1466 25.3181 24.1571 25.3209 24.1637 25.317C24.3442 25.3372 24.5576 25.2762 24.8041 25.1338C24.8041 25.1338 24.9868 25.0195 24.9906 25.0262C24.9906 25.0262 26.6494 24.0685 26.6455 24.0618C26.6455 24.0618 26.8359 23.9608 26.8321 23.9541C27.0424 23.8415 27.2602 23.6803 27.3355 23.4414C27.3759 23.3115 27.3705 23.1636 27.2984 23.0542C27.2908 23.0409 27.2831 23.0276 27.2754 23.0142C27.1823 22.8992 27.0303 22.8359 26.8814 22.8242C26.681 22.8156 26.4896 22.8994 26.3164 22.9994L26.1032 23.1225L24.1047 24.2763L23.9315 24.3763C23.8649 24.4148 23.8049 24.4494 23.7411 24.4774C23.7278 24.4851 23.7145 24.4928 23.7012 24.5004C23.6374 24.5284 23.5774 24.563 23.5203 24.5871C23.5136 24.591 23.5031 24.5882 23.4898 24.5958C23.305 24.6759 23.1259 24.7349 22.9553 24.7623C22.9486 24.7662 22.9419 24.77 22.9248 24.7711C22.8771 24.7808 22.8256 24.7839 22.7779 24.7937C22.7608 24.7947 22.7503 24.7919 22.7369 24.7996C22.5204 24.8091 22.3189 24.7833 22.1393 24.7183C22.1288 24.7155 22.1183 24.7126 22.1039 24.7032C22.0685 24.688 22.0293 24.6663 21.9901 24.6445C21.9796 24.6417 21.9758 24.635 21.9653 24.6322C21.8438 24.5602 21.7279 24.4673 21.6243 24.3494C21.6138 24.3466 21.61 24.3399 21.6023 24.3266C21.5725 24.2905 21.5428 24.2544 21.5092 24.2116C21.5015 24.1982 21.4977 24.1916 21.49 24.1783C21.4756 24.1688 21.4718 24.1621 21.4641 24.1488L21.4218 24.0755C21.4141 24.0622 21.4102 24.0555 21.4026 24.0422L21.1679 23.6358C21.1438 23.5787 21.1236 23.5282 21.0995 23.4711C21.0956 23.4644 21.0918 23.4578 21.0918 23.4578C21.0677 23.4006 21.0541 23.3463 21.0443 23.2986C21.0366 23.2853 21.0394 23.2748 21.0356 23.2681C21.0258 23.2205 21.0161 23.1728 21.013 23.1213C21.0053 23.108 21.0081 23.0975 21.0071 23.0803C21.0012 23.0393 21.0019 22.9945 21.0027 22.9496C21.0017 22.9324 21.0006 22.9153 20.9996 22.8981C21.0042 22.8599 21.0088 22.8217 21.0134 22.7835C21.0152 22.7559 21.0208 22.7349 21.0331 22.71C21.0349 22.6823 21.0395 22.6441 21.0518 22.6193C21.0564 22.5811 21.0715 22.5457 21.0866 22.5103C21.0922 22.4893 21.1017 22.475 21.1073 22.454C21.2869 22.0572 21.6745 21.6824 22.2712 21.3468L24.8293 19.8698C25.4117 19.5247 25.9301 19.3764 26.3634 19.4193C26.3845 19.425 26.4016 19.4239 26.4226 19.4296C26.4608 19.4342 26.499 19.4388 26.5344 19.4539C26.5621 19.4557 26.5974 19.4708 26.629 19.4792C26.65 19.4849 26.671 19.4905 26.6959 19.5028C26.7312 19.5179 26.7666 19.533 26.802 19.5481C26.8163 19.5576 26.8307 19.5671 26.8517 19.5727C26.8909 19.5945 26.9235 19.6201 26.9627 19.6418C26.9704 19.6552 26.9809 19.658 26.9952 19.6675C27.0316 19.6997 27.068 19.732 27.1044 19.7643C27.1149 19.7671 27.1188 19.7738 27.1265 19.7871C27.1629 19.8194 27.2031 19.8583 27.2405 19.9078C27.2405 19.9078 27.2444 19.9144 27.2482 19.9211C27.2923 19.9667 27.3231 20.02 27.3605 20.0694L27.6144 20.5091L26.2887 21.2745C26.2887 21.2745 26.2079 21.1346 26.2041 21.1279C26.1925 21.1079 26.181 21.088 26.1628 21.0718C26.159 21.0652 26.159 21.0652 26.1551 21.0585C26.1369 21.0424 26.1292 21.029 26.111 21.0129C26.1072 21.0062 26.1072 21.0062 26.0967 21.0034C26.089 20.9901 26.0708 20.974 26.0564 20.9645C26.0459 20.9617 26.0421 20.955 26.0421 20.955C26.0277 20.9455 26.0134 20.936 25.9952 20.9199C25.9885 20.9238 25.9846 20.9171 25.9741 20.9143C25.9598 20.9048 25.9493 20.902 25.9283 20.8964C25.9244 20.8897 25.9139 20.8869 25.9034 20.8841C25.8929 20.8812 25.8719 20.8756 25.8614 20.8728C25.8509 20.87 25.8298 20.8644 25.8193 20.8615C25.8127 20.8654 25.8022 20.8626 25.7917 20.8597C25.6112 20.8396 25.3978 20.9006 25.1552 21.0496L24.9686 21.1573L23.3099 22.115L23.1233 22.2227C22.8797 22.3545 22.5924 22.5647 22.5938 22.8748C22.5926 23.0265 22.6667 23.1702 22.7892 23.2594C22.9951 23.4159 23.24 23.3633 23.4619 23.2707L23.4686 23.2669C23.4952 23.2515 23.5191 23.2466 23.5457 23.2312C23.5524 23.2274 23.559 23.2235 23.5657 23.2197C23.5857 23.2081 23.6123 23.1927 23.639 23.1774L23.8522 23.0543L25.5109 22.0966L26.0239 21.8004C26.0905 21.762 26.1543 21.734 26.2143 21.6994C26.2276 21.6917 26.2409 21.684 26.2581 21.683C26.318 21.6484 26.3818 21.6204 26.439 21.5963C26.4456 21.5925 26.4523 21.5886 26.4656 21.5809C26.6504 21.5009 26.8333 21.4486 27.0001 21.4144C27.0068 21.4106 27.0173 21.4134 27.0306 21.4057C27.0783 21.396 27.1298 21.3929 27.1813 21.3898C27.1946 21.3821 27.2051 21.3849 27.2223 21.3839C27.435 21.3677 27.6364 21.3935 27.8161 21.4585C27.8305 21.468 27.841 21.4708 27.8515 21.4736C27.8907 21.4954 27.9261 21.5105 27.9653 21.5323C27.9758 21.5351 27.9796 21.5417 27.9901 21.5446C28.1116 21.6165 28.2275 21.7095 28.3311 21.8274C28.3416 21.8302 28.3493 21.8435 28.3531 21.8502C28.3829 21.8863 28.4164 21.9291 28.4462 21.9652C28.4539 21.9785 28.4616 21.9919 28.4693 22.0052C28.4798 22.008 28.4875 22.0213 28.4913 22.028Z" fill="#E7E7E7"/>
<defs>
<clipPath id="clip0_8116_1389">
<rect width="12.8205" height="12.8205" fill="white" transform="translate(5.90991 26.6953) rotate(-30)"/>
</clipPath>
</defs>
</svg>
