<svg width="38" height="38" viewBox="0 0 38 38" fill="none" xmlns="http://www.w3.org/2000/svg">
<path d="M17.3268 25.6399C19.2018 25.6412 21.0215 25.006 22.4885 23.8383L27.5285 28.8783L28.8852 27.5216L23.8452 22.4816C25.0138 21.0042 25.6465 19.1738 25.6398 17.2904C25.633 15.4066 24.9873 13.581 23.8081 12.112C22.629 10.643 20.9863 9.61758 19.1487 9.20342C17.311 8.78948 15.3873 9.01124 13.6921 9.8326C11.9969 10.6541 10.6308 12.0264 9.81666 13.7251C9.0028 15.4239 8.78946 17.3486 9.21165 19.1843C9.63373 21.0202 10.6663 22.6585 12.1407 23.831C13.6149 25.0036 15.4434 25.6413 17.3271 25.6397L17.3268 25.6399ZM17.3268 10.9199C19.0242 10.9199 20.6522 11.5942 21.8525 12.7944C23.0527 13.9947 23.7269 15.6224 23.7269 17.32C23.7269 19.0176 23.0527 20.6453 21.8525 21.8456C20.6521 23.0458 19.0245 23.7201 17.3268 23.7201C15.6293 23.7201 14.0015 23.0458 12.8012 21.8456C11.601 20.6453 10.9268 19.0176 10.9268 17.32C10.9268 15.6224 11.601 13.9946 12.8012 12.7944C14.0016 11.5942 15.6293 10.9199 17.3268 10.9199Z" fill="#909090"/>
</svg>
