<svg width="24" height="24" viewBox="0 0 24 24" fill="none" xmlns="http://www.w3.org/2000/svg">
<path d="M19.8544 9.38186V7.41823H4.14528V9.38186H19.8544ZM19.8544 12.3273H4.14528V17.2364H19.8544V12.3273ZM4.14528 5.45459H19.8544C20.3752 5.45459 20.8746 5.66147 21.2429 6.02973C21.6111 6.39798 21.818 6.89744 21.818 7.41823V17.2364C21.818 17.7572 21.6111 18.2567 21.2429 18.6249C20.8746 18.9932 20.3752 19.2 19.8544 19.2H4.14528C3.62449 19.2 3.12503 18.9932 2.75678 18.6249C2.38852 18.2567 2.18164 17.7572 2.18164 17.2364V7.41823C2.18164 6.89744 2.38852 6.39798 2.75678 6.02973C3.12503 5.66147 3.62449 5.45459 4.14528 5.45459ZM6.10891 14.291H7.09073C7.35113 14.291 7.60086 14.3944 7.78498 14.5785C7.96911 14.7626 8.07255 15.0124 8.07255 15.2728C8.07255 15.5332 7.96911 15.7829 7.78498 15.967C7.60086 16.1511 7.35113 16.2546 7.09073 16.2546H6.10891C5.84852 16.2546 5.59879 16.1511 5.41466 15.967C5.23054 15.7829 5.1271 15.5332 5.1271 15.2728C5.1271 15.0124 5.23054 14.7626 5.41466 14.5785C5.59879 14.3944 5.84852 14.291 6.10891 14.291ZM11.018 14.291H15.9271C16.1875 14.291 16.4372 14.3944 16.6213 14.5785C16.8055 14.7626 16.9089 15.0124 16.9089 15.2728C16.9089 15.5332 16.8055 15.7829 16.6213 15.967C16.4372 16.1511 16.1875 16.2546 15.9271 16.2546H11.018C10.7576 16.2546 10.5079 16.1511 10.3238 15.967C10.1396 15.7829 10.0362 15.5332 10.0362 15.2728C10.0362 15.0124 10.1396 14.7626 10.3238 14.5785C10.5079 14.3944 10.7576 14.291 11.018 14.291Z" fill="#909090"/>
</svg>
