<svg width="32" height="42" viewBox="0 0 32 42" fill="none" xmlns="http://www.w3.org/2000/svg">
<path d="M31 0H1C0.447715 0 0 0.447716 0 1V40.0233C0 40.843 0.932079 41.3145 1.59245 40.8289L15.0796 30.9104C15.426 30.6556 15.8966 30.6509 16.2481 30.8986L30.4239 40.8892C31.0864 41.3561 32 40.8823 32 40.0718V1C32 0.447715 31.5523 0 31 0Z" fill="#9100FF"/>
<path d="M15.8845 9.75658L15.3164 9.1899L15.3156 9.1907C14.9442 8.81084 14.501 8.50831 14.0115 8.30065C13.522 8.093 12.9961 7.98436 12.4642 7.98104C11.9323 7.97771 11.4051 8.07977 10.9131 8.28129C10.421 8.48281 9.97401 8.77977 9.59793 9.15496C9.22186 9.53016 8.92421 9.9761 8.72225 10.4669C8.5203 10.9578 8.41806 11.4837 8.42147 12.0143C8.42488 12.5448 8.53386 13.0694 8.74211 13.5576C8.95035 14.0458 9.2537 14.4879 9.63457 14.8583L15.3164 20.5251C15.391 20.5996 15.4796 20.6587 15.5772 20.6991C15.6747 20.7394 15.7793 20.7602 15.8849 20.7602C15.9905 20.7602 16.095 20.7394 16.1926 20.6991C16.2901 20.6587 16.3787 20.5996 16.4534 20.5251L22.1343 14.8575C22.5101 14.4859 22.8086 14.044 23.0127 13.5571C23.2167 13.0702 23.3224 12.5478 23.3236 12.0201C23.3247 11.4923 23.2214 10.9695 23.0194 10.4817C22.8175 9.99387 22.5209 9.55065 22.1468 9.17746C21.7727 8.80427 21.3284 8.50847 20.8393 8.30704C20.3503 8.10561 19.8262 8.00251 19.2971 8.00366C18.768 8.00482 18.2444 8.11021 17.7562 8.31377C17.2681 8.51734 16.825 8.81508 16.4526 9.1899L15.8845 9.75658Z" fill="#F6F6F6"/>
</svg>
