<svg width="24" height="24" viewBox="0 0 24 24" fill="none" xmlns="http://www.w3.org/2000/svg">
<path d="M5.22515 10.7324L11.8497 17.357L18.4743 10.7324C19.06 10.1467 19.389 9.35235 19.389 8.52405C19.389 7.69576 19.06 6.90139 18.4743 6.31569C18.1843 6.02569 17.84 5.79564 17.4611 5.63869C17.0822 5.48174 16.676 5.40096 16.2659 5.40096C15.4376 5.40096 14.6432 5.73 14.0575 6.31569L11.8497 8.52353L9.64187 6.31673C9.05469 5.7389 8.26296 5.4165 7.43915 5.41975C6.61533 5.42301 5.82618 5.75166 5.24358 6.33412C4.66098 6.91658 4.33214 7.70566 4.32869 8.52947C4.32524 9.35329 4.64746 10.1451 5.22515 10.7324ZM11.1138 4.84276L11.8497 5.57871L12.5857 4.84276C13.0682 4.35598 13.6421 3.96931 14.2745 3.70493C14.9069 3.44056 15.5852 3.30369 16.2706 3.30219C16.956 3.30069 17.635 3.43459 18.2685 3.69619C18.902 3.95779 19.4777 4.34195 19.9623 4.82661C20.447 5.31126 20.8311 5.88688 21.0927 6.5204C21.3543 7.15393 21.4882 7.83288 21.4867 8.51829C21.4852 9.2037 21.3484 9.88206 21.084 10.5144C20.8196 11.1468 20.4329 11.7207 19.9462 12.2033L12.5867 19.5638C12.49 19.6605 12.3752 19.7373 12.2488 19.7897C12.1225 19.8421 11.987 19.8691 11.8502 19.8691C11.7134 19.8691 11.578 19.8421 11.4516 19.7897C11.3252 19.7373 11.2104 19.6605 11.1138 19.5638L3.75326 12.2043C3.25987 11.7233 2.86689 11.1492 2.59712 10.5151C2.32735 9.88109 2.18616 9.19979 2.18175 8.51076C2.17733 7.82173 2.30978 7.13869 2.5714 6.50124C2.83302 5.8638 3.21861 5.28465 3.7058 4.79739C4.193 4.31013 4.77209 3.92446 5.4095 3.66274C6.0469 3.40103 6.72993 3.26849 7.41896 3.27281C8.10799 3.27712 8.78931 3.41821 9.42338 3.68789C10.0575 3.95757 10.6317 4.35047 11.1127 4.8438L11.1138 4.84276Z" fill="#000"/>
</svg>
